<?xml version="1.0" standalone="no"?>
<!DOCTYPE svg PUBLIC "-//W3C//DTD SVG 20010904//EN"
 "http://www.w3.org/TR/2001/REC-SVG-20010904/DTD/svg10.dtd">
<svg version="1.0" xmlns="http://www.w3.org/2000/svg"
 width="1024.000000pt" height="1024.000000pt" viewBox="0 0 1024.000000 1024.000000"
 preserveAspectRatio="xMidYMid meet">

<g transform="translate(0.000000,1024.000000) scale(0.100000,-0.100000)"
fill="#000000" stroke="none">
<path d="M4740 9399 c-583 -43 -1128 -217 -1540 -490 -71 -47 -111 -68 -125
-65 -11 3 -47 25 -80 49 -205 149 -360 204 -549 194 -125 -6 -209 -32 -297
-91 -166 -111 -276 -271 -329 -476 -27 -108 -37 -305 -21 -421 15 -104 70
-273 117 -358 76 -138 210 -288 326 -366 32 -21 58 -39 58 -40 0 -1 -11 -38
-24 -82 -41 -137 -85 -346 -116 -546 -17 -106 -30 -197 -30 -204 0 -6 -51 -63
-113 -125 -243 -243 -382 -485 -439 -768 -20 -99 -23 -143 -22 -325 0 -178 4
-226 23 -315 59 -280 179 -537 350 -750 169 -211 436 -423 639 -507 57 -23 74
-36 117 -91 95 -121 313 -313 431 -379 25 -14 44 -27 42 -28 -2 -2 -102 -42
-223 -90 -394 -157 -582 -250 -805 -398 -151 -100 -279 -204 -406 -331 -273
-274 -417 -526 -515 -905 -16 -63 -26 -118 -22 -121 92 -82 331 -248 513 -357
l154 -93 34 133 c65 259 173 667 182 689 8 17 9 -1 5 -62 -7 -116 -32 -557
-40 -711 -5 -99 -4 -127 7 -136 39 -31 447 -182 696 -257 1329 -404 3067 -446
4333 -106 l37 10 12 88 c51 381 111 653 206 942 56 170 80 226 70 160 -6 -38
-28 -270 -46 -470 -17 -201 -30 -437 -30 -552 l0 -106 63 14 c412 96 922 308
1297 540 211 130 536 374 546 410 3 11 -7 70 -21 130 -130 532 -399 923 -850
1236 -177 124 -357 217 -704 365 -135 57 -286 125 -336 151 -103 54 -199 142
-233 213 -22 45 -44 138 -36 150 2 4 50 35 106 70 377 231 687 550 898 923
l57 101 83 42 c107 55 176 107 281 213 288 292 427 729 397 1254 -8 148 -47
349 -90 459 -66 175 -169 328 -281 417 -31 25 -56 49 -57 53 0 4 25 37 56 74
185 217 273 449 294 768 36 560 -222 972 -697 1110 -174 51 -359 44 -552 -21
-175 -58 -316 -144 -471 -286 -42 -39 -67 -55 -78 -51 -9 4 -74 39 -143 80
-444 256 -950 401 -1549 443 -164 11 -404 11 -560 -1z m766 -248 c393 -53 736
-154 1043 -307 150 -75 299 -167 308 -191 6 -16 -48 -97 -111 -165 l-44 -48
-110 74 c-422 282 -914 429 -1508 452 -1052 39 -1970 -415 -2513 -1246 -44
-66 -82 -117 -85 -112 -3 5 10 49 28 98 147 396 453 768 836 1017 175 113 367
205 595 283 266 91 464 132 830 168 22 2 162 2 310 1 200 -3 309 -9 421 -24z
m2037 -1154 c109 -133 220 -322 263 -451 44 -127 29 -179 -67 -243 -347 -231
-549 -676 -549 -1208 0 -394 102 -704 314 -959 63 -75 65 -80 50 -98 -52 -56
-208 41 -309 192 -138 207 -212 475 -222 800 -15 492 125 911 416 1247 l72 82
-37 98 c-20 54 -67 163 -105 242 -38 79 -69 145 -69 147 0 2 17 12 38 23 42
22 75 55 121 124 18 26 36 47 40 47 5 0 25 -19 44 -43z m-1813 -253 c92 -21
200 -76 263 -134 73 -67 135 -190 95 -190 -6 0 -40 16 -75 36 -166 92 -318
131 -483 121 -115 -8 -191 -27 -288 -72 -41 -19 -78 -32 -83 -29 -15 9 -10 63
10 102 26 51 101 118 159 143 108 47 260 56 402 23z m-2485 -18 c73 -19 113
-43 135 -79 25 -41 25 -68 -1 -101 -25 -31 -42 -32 -144 -6 -143 37 -283 22
-415 -45 -78 -39 -90 -42 -90 -19 0 41 108 158 191 207 90 53 222 71 324 43z
m5048 -603 c42 -20 88 -53 122 -87 73 -73 73 -95 0 -51 -175 105 -341 51 -479
-158 -124 -187 -180 -408 -180 -702 0 -229 38 -417 115 -568 16 -32 29 -67 29
-77 0 -35 -121 -210 -146 -210 -7 0 -28 19 -47 43 -180 221 -257 676 -186
1092 40 234 174 518 297 625 107 95 200 131 322 128 72 -3 96 -8 153 -35z
m-5040 -72 c179 -69 275 -304 222 -539 -18 -77 -68 -172 -91 -172 -10 0 -14 6
-11 14 17 44 29 146 25 212 -6 97 -53 194 -113 236 -87 61 -201 45 -274 -39
-67 -75 -86 -137 -86 -278 0 -116 1 -123 33 -187 20 -40 49 -81 74 -103 23
-19 39 -37 36 -41 -6 -6 -233 -54 -255 -54 -24 0 -89 69 -117 123 -15 30 -36
99 -48 153 -18 88 -19 111 -9 205 25 255 151 427 354 484 71 20 186 14 260
-14z m2452 14 c173 -37 292 -142 362 -322 24 -60 27 -82 27 -188 0 -106 -3
-129 -27 -200 -94 -269 -318 -415 -578 -377 -148 21 -265 102 -332 230 -49 92
-67 168 -67 277 0 114 21 210 63 300 79 164 196 257 360 284 78 13 115 12 192
-4z m2806 -152 c13 -16 12 -17 -3 -4 -10 7 -18 15 -18 17 0 8 8 3 21 -13z m65
-104 c14 -28 24 -53 22 -55 -2 -2 -16 21 -31 51 -15 30 -25 55 -22 55 3 0 16
-23 31 -51z m63 -169 c0 -8 -7 1 -14 20 -18 46 -17 64 0 25 8 -16 14 -37 14
-45z m19 -75 c0 -16 -2 -15 -8 5 -11 34 -11 60 0 35 5 -11 8 -29 8 -40z m9
-62 c-3 -10 -5 -4 -5 12 0 17 2 24 5 18 2 -7 2 -21 0 -30z m10 -70 c-3 -10 -5
-2 -5 17 0 19 2 27 5 18 2 -10 2 -26 0 -35z m10 -255 c-1 -40 -3 -10 -3 67 0
77 1 110 3 73 2 -37 2 -100 0 -140z m-10 -150 c-2 -13 -4 -5 -4 17 -1 22 1 32
4 23 2 -10 2 -28 0 -40z m-10 -75 c-3 -10 -5 -2 -5 17 0 19 2 27 5 18 2 -10 2
-26 0 -35z m-10 -55 c-3 -7 -5 -2 -5 12 0 14 2 19 5 13 2 -7 2 -19 0 -25z
m-4957 -23 c248 -37 340 -97 340 -218 0 -187 -193 -317 -583 -393 -108 -21
-107 -20 -107 -182 1 -345 122 -504 475 -621 180 -59 286 -75 510 -75 161 0
206 3 295 22 215 47 388 118 553 229 158 105 285 236 372 386 31 53 26 66 -25
67 -32 0 -95 17 -138 37 -41 20 -40 49 3 74 88 51 310 42 428 -18 81 -40 112
-122 57 -150 -14 -7 -57 -13 -97 -13 l-72 0 -46 -82 c-71 -126 -130 -205 -234
-309 -182 -181 -407 -306 -683 -378 -162 -43 -253 -54 -423 -53 -253 1 -463
44 -776 157 -98 36 -181 65 -185 65 -3 0 -47 -15 -98 -34 -193 -73 -351 -83
-498 -32 -154 54 -289 185 -251 245 17 27 39 24 130 -17 48 -22 118 -47 156
-56 85 -21 243 -22 331 -2 71 17 136 41 136 51 0 4 -11 50 -24 103 -32 125
-74 347 -89 468 l-12 96 -85 24 c-138 39 -225 87 -306 168 -86 86 -119 158
-112 244 9 110 103 173 310 206 125 20 595 15 748 -9z m4947 -27 c-3 -7 -5 -2
-5 12 0 14 2 19 5 13 2 -7 2 -19 0 -25z m-10 -40 c-3 -8 -6 -5 -6 6 -1 11 2
17 5 13 3 -3 4 -12 1 -19z m-32 -108 c-9 -28 -19 -50 -21 -48 -2 2 4 27 13 56
9 28 19 50 21 47 2 -2 -4 -27 -13 -55z m-34 -87 c-12 -20 -14 -14 -5 12 4 9 9
14 11 11 3 -2 0 -13 -6 -23z m-40 -92 c-17 -34 -33 -61 -36 -61 -3 0 10 29 27
65 18 35 34 63 36 61 2 -2 -11 -31 -27 -65z m-550 -98 c13 -16 12 -17 -3 -4
-10 7 -18 15 -18 17 0 8 8 3 21 -13z m478 -24 c-37 -71 -214 -222 -284 -244
-11 -4 7 8 40 27 68 38 157 117 211 188 41 54 52 63 33 29z m-372 -39 c28 -20
47 -46 59 -75 15 -41 15 -47 0 -85 -21 -53 -129 -201 -234 -323 -284 -328
-629 -552 -1065 -693 -188 -60 -186 -59 -248 -134 -73 -87 -131 -123 -258
-164 -136 -43 -261 -60 -398 -54 -127 6 -194 29 -247 88 -44 49 -60 99 -60
185 0 137 78 220 274 290 253 90 504 69 617 -52 l43 -45 92 22 c232 56 519
183 726 320 267 177 456 386 598 659 26 50 50 91 54 91 3 0 25 -14 47 -30z
m-1021 -2106 c15 -22 15 -26 -1 -51 -31 -46 -267 -283 -364 -364 -352 -294
-809 -524 -1277 -643 -451 -114 -965 -129 -1362 -40 -386 86 -690 271 -804
489 -70 135 -90 262 -45 302 39 35 97 64 101 50 42 -153 85 -240 162 -326 169
-186 457 -309 854 -362 143 -20 536 -17 690 5 389 54 719 156 1045 321 298
151 503 300 740 540 l160 162 43 -29 c23 -16 50 -40 58 -54z"/>
<path d="M5589 6826 c-115 -41 -193 -165 -206 -326 -12 -161 53 -300 172 -363
54 -29 154 -29 210 0 166 86 231 331 142 528 -64 138 -195 205 -318 161z"/>
</g>
</svg>
